<mxfile host="app.diagrams.net" modified="2023-05-08T04:46:00.321Z" agent="Mozilla/5.0 (Windows NT 10.0; Win64; x64) AppleWebKit/537.36 (KHTML, like Gecko) Chrome/112.0.0.0 Safari/537.36" etag="rXSbTdRXYe1cbT45J84F" version="21.2.9" type="device">
  <diagram name="Page-1" id="MwqrUawQlK9aLj1ZZwEd">
    <mxGraphModel dx="1100" dy="544" grid="1" gridSize="10" guides="1" tooltips="1" connect="1" arrows="1" fold="1" page="1" pageScale="1" pageWidth="850" pageHeight="1100" math="0" shadow="0">
      <root>
        <mxCell id="0" />
        <mxCell id="1" parent="0" />
        <mxCell id="SyU28OHnpPYCDhHQXtX0-5" value="" style="edgeStyle=orthogonalEdgeStyle;rounded=0;orthogonalLoop=1;jettySize=auto;html=1;" edge="1" parent="1" source="SyU28OHnpPYCDhHQXtX0-6">
          <mxGeometry relative="1" as="geometry">
            <mxPoint x="169.9655172413793" y="90" as="targetPoint" />
          </mxGeometry>
        </mxCell>
        <mxCell id="SyU28OHnpPYCDhHQXtX0-6" value="START" style="ellipse;whiteSpace=wrap;html=1;" vertex="1" parent="1">
          <mxGeometry x="110" y="20" width="120" height="40" as="geometry" />
        </mxCell>
        <mxCell id="SyU28OHnpPYCDhHQXtX0-7" value="" style="edgeStyle=orthogonalEdgeStyle;rounded=0;orthogonalLoop=1;jettySize=auto;html=1;" edge="1" parent="1" source="SyU28OHnpPYCDhHQXtX0-8" target="SyU28OHnpPYCDhHQXtX0-10">
          <mxGeometry relative="1" as="geometry" />
        </mxCell>
        <mxCell id="SyU28OHnpPYCDhHQXtX0-8" value="&lt;span style=&quot;color: rgb(0, 0, 0); font-family: Helvetica; font-size: 12px; font-style: normal; font-variant-ligatures: normal; font-variant-caps: normal; font-weight: 400; letter-spacing: normal; orphans: 2; text-align: center; text-indent: 0px; text-transform: none; widows: 2; word-spacing: 0px; -webkit-text-stroke-width: 0px; background-color: rgb(251, 251, 251); text-decoration-thickness: initial; text-decoration-style: initial; text-decoration-color: initial; float: none; display: inline !important;&quot;&gt;Read Noisy Image&lt;/span&gt;" style="shape=parallelogram;perimeter=parallelogramPerimeter;whiteSpace=wrap;html=1;fixedSize=1;" vertex="1" parent="1">
          <mxGeometry x="95" y="90" width="150" height="40" as="geometry" />
        </mxCell>
        <mxCell id="SyU28OHnpPYCDhHQXtX0-9" style="edgeStyle=orthogonalEdgeStyle;rounded=0;orthogonalLoop=1;jettySize=auto;html=1;entryX=0.5;entryY=0;entryDx=0;entryDy=0;" edge="1" parent="1" source="SyU28OHnpPYCDhHQXtX0-10" target="SyU28OHnpPYCDhHQXtX0-15">
          <mxGeometry relative="1" as="geometry">
            <mxPoint x="170" y="240" as="targetPoint" />
          </mxGeometry>
        </mxCell>
        <mxCell id="SyU28OHnpPYCDhHQXtX0-10" value="Pad Image Symmetrically" style="whiteSpace=wrap;html=1;" vertex="1" parent="1">
          <mxGeometry x="110" y="160" width="120" height="40" as="geometry" />
        </mxCell>
        <mxCell id="SyU28OHnpPYCDhHQXtX0-11" style="edgeStyle=orthogonalEdgeStyle;rounded=0;orthogonalLoop=1;jettySize=auto;html=1;entryX=0.5;entryY=0;entryDx=0;entryDy=0;" edge="1" parent="1" source="SyU28OHnpPYCDhHQXtX0-15" target="SyU28OHnpPYCDhHQXtX0-17">
          <mxGeometry relative="1" as="geometry" />
        </mxCell>
        <mxCell id="SyU28OHnpPYCDhHQXtX0-12" value="NO" style="edgeLabel;html=1;align=center;verticalAlign=middle;resizable=0;points=[];" vertex="1" connectable="0" parent="SyU28OHnpPYCDhHQXtX0-11">
          <mxGeometry x="-0.8133" y="-1" relative="1" as="geometry">
            <mxPoint x="11" as="offset" />
          </mxGeometry>
        </mxCell>
        <mxCell id="SyU28OHnpPYCDhHQXtX0-13" style="edgeStyle=orthogonalEdgeStyle;rounded=0;orthogonalLoop=1;jettySize=auto;html=1;" edge="1" parent="1" source="SyU28OHnpPYCDhHQXtX0-15">
          <mxGeometry relative="1" as="geometry">
            <mxPoint x="170" y="570" as="targetPoint" />
            <Array as="points">
              <mxPoint x="281" y="280" />
              <mxPoint x="281" y="570" />
              <mxPoint x="170" y="570" />
            </Array>
          </mxGeometry>
        </mxCell>
        <mxCell id="SyU28OHnpPYCDhHQXtX0-14" value="YES" style="edgeLabel;html=1;align=center;verticalAlign=middle;resizable=0;points=[];" vertex="1" connectable="0" parent="SyU28OHnpPYCDhHQXtX0-13">
          <mxGeometry x="-0.9254" relative="1" as="geometry">
            <mxPoint x="-5" y="-8" as="offset" />
          </mxGeometry>
        </mxCell>
        <mxCell id="SyU28OHnpPYCDhHQXtX0-15" value="0 &amp;lt; P&lt;sub&gt;ij&lt;/sub&gt; &amp;lt; 255" style="rhombus;whiteSpace=wrap;html=1;rounded=0;" vertex="1" parent="1">
          <mxGeometry x="119.99999999999999" y="230" width="100" height="100" as="geometry" />
        </mxCell>
        <mxCell id="SyU28OHnpPYCDhHQXtX0-23" style="edgeStyle=orthogonalEdgeStyle;rounded=0;orthogonalLoop=1;jettySize=auto;html=1;" edge="1" parent="1" source="SyU28OHnpPYCDhHQXtX0-17" target="SyU28OHnpPYCDhHQXtX0-24">
          <mxGeometry relative="1" as="geometry">
            <mxPoint x="170" y="430.0000000000001" as="targetPoint" />
          </mxGeometry>
        </mxCell>
        <mxCell id="SyU28OHnpPYCDhHQXtX0-17" value="Select a 3x3 Window around it" style="whiteSpace=wrap;html=1;rounded=0;" vertex="1" parent="1">
          <mxGeometry x="110" y="360" width="120" height="40" as="geometry" />
        </mxCell>
        <mxCell id="SyU28OHnpPYCDhHQXtX0-18" style="edgeStyle=orthogonalEdgeStyle;rounded=0;orthogonalLoop=1;jettySize=auto;html=1;entryX=0.5;entryY=0;entryDx=0;entryDy=0;" edge="1" parent="1" source="SyU28OHnpPYCDhHQXtX0-19" target="SyU28OHnpPYCDhHQXtX0-20">
          <mxGeometry relative="1" as="geometry">
            <Array as="points">
              <mxPoint x="170" y="510" />
              <mxPoint x="170" y="510" />
            </Array>
          </mxGeometry>
        </mxCell>
        <mxCell id="SyU28OHnpPYCDhHQXtX0-19" value="Find Min/Max" style="whiteSpace=wrap;html=1;rounded=0;" vertex="1" parent="1">
          <mxGeometry x="110" y="510" width="120" height="40" as="geometry" />
        </mxCell>
        <mxCell id="SyU28OHnpPYCDhHQXtX0-20" value="Denoised Image" style="rounded=0;whiteSpace=wrap;html=1;" vertex="1" parent="1">
          <mxGeometry x="110" y="610" width="120" height="40" as="geometry" />
        </mxCell>
        <mxCell id="SyU28OHnpPYCDhHQXtX0-21" value="" style="endArrow=classic;html=1;rounded=0;entryX=0;entryY=0.5;entryDx=0;entryDy=0;" edge="1" parent="1" target="SyU28OHnpPYCDhHQXtX0-15">
          <mxGeometry width="50" height="50" relative="1" as="geometry">
            <mxPoint x="170" y="580" as="sourcePoint" />
            <mxPoint x="380" y="420" as="targetPoint" />
            <Array as="points">
              <mxPoint x="60" y="580" />
              <mxPoint x="60" y="280" />
            </Array>
          </mxGeometry>
        </mxCell>
        <mxCell id="SyU28OHnpPYCDhHQXtX0-25" value="" style="edgeStyle=orthogonalEdgeStyle;rounded=0;orthogonalLoop=1;jettySize=auto;html=1;" edge="1" parent="1" source="SyU28OHnpPYCDhHQXtX0-24" target="SyU28OHnpPYCDhHQXtX0-19">
          <mxGeometry relative="1" as="geometry" />
        </mxCell>
        <mxCell id="SyU28OHnpPYCDhHQXtX0-24" value="Remove all 0&#39;s and 255&#39;s from the window" style="rounded=0;whiteSpace=wrap;html=1;" vertex="1" parent="1">
          <mxGeometry x="110" y="430" width="120" height="50" as="geometry" />
        </mxCell>
      </root>
    </mxGraphModel>
  </diagram>
</mxfile>
